# xmcd
#
# Track frame offsets: 
#        150
#        24264
#        83068
#        126489
#        188261
#        214210
#        273924
#
# Disc length: 4336 seconds
#
# Revision: 0
# Processed by: cddbd v1.5.2PL0 Copyright (c) Steve Scherf et al.
# Submitted via: ExactAudioCopy v0.95a4
#
DISCID=5510ee07
DTITLE=Buddy Guy and Kim Wilson - Antone's - Austin TX 12-21-91
DYEAR=1991
DGENRE=Blues
TTITLE0=Instrumental Shuffle (House Band)
TTITLE1=Sweet Home Chicago > Medley
TTITLE2=Everything Gonna Be Alright > Medley
TTITLE3=Sweet Little Angel
TTITLE4=Mary Had a Little Lamb
TTITLE5=I'll Play the Blues for You
TTITLE6=Damn Right I've Got the Blues
EXTD=
EXTT0=
EXTT1=
EXTT2=
EXTT3=
EXTT4=
EXTT5=
EXTT6=
PLAYORDER=
